<?xml version="1.0" encoding="UTF-8" standalone="no"?>
<!-- Created with Inkscape (http://www.inkscape.org/) -->

<svg
   xmlns:dc="http://purl.org/dc/elements/1.1/"
   xmlns:cc="http://creativecommons.org/ns#"
   xmlns:rdf="http://www.w3.org/1999/02/22-rdf-syntax-ns#"
   xmlns:svg="http://www.w3.org/2000/svg"
   xmlns="http://www.w3.org/2000/svg"
   xmlns:sodipodi="http://sodipodi.sourceforge.net/DTD/sodipodi-0.dtd"
   xmlns:inkscape="http://www.inkscape.org/namespaces/inkscape"
   width="90.680519mm"
   height="33.14357mm"
   viewBox="0 0 90.680519 33.14357"
   version="1.1"
   id="svg8"
   inkscape:version="0.92.4 (5da689c313, 2019-01-14)"
   sodipodi:docname="paper.svg">
  <defs
     id="defs2" />
  <sodipodi:namedview
     id="base"
     pagecolor="#ffffff"
     bordercolor="#666666"
     borderopacity="1.0"
     inkscape:pageopacity="0.0"
     inkscape:pageshadow="2"
     inkscape:zoom="2.8"
     inkscape:cx="105.2953"
     inkscape:cy="44.212155"
     inkscape:document-units="mm"
     inkscape:current-layer="layer1"
     showgrid="false"
     inkscape:object-nodes="false"
     inkscape:snap-nodes="false"
     inkscape:snap-others="false"
     inkscape:snap-global="false"
     fit-margin-top="0"
     fit-margin-left="0"
     fit-margin-right="0"
     fit-margin-bottom="0"
     inkscape:window-width="1920"
     inkscape:window-height="1017"
     inkscape:window-x="1912"
     inkscape:window-y="-8"
     inkscape:window-maximized="1" />
  <metadata
     id="metadata5">
    <rdf:RDF>
      <cc:Work
         rdf:about="">
        <dc:format>image/svg+xml</dc:format>
        <dc:type
           rdf:resource="http://purl.org/dc/dcmitype/StillImage" />
        <dc:title></dc:title>
      </cc:Work>
    </rdf:RDF>
  </metadata>
  <g
     inkscape:label="Layer 1"
     inkscape:groupmode="layer"
     id="layer1"
     transform="translate(-8.4437305,-10.139914)">
    <path
       style="opacity:0.38900003;fill:#ffffff;fill-opacity:1;stroke:none;stroke-width:3.37457824;stroke-linecap:round;stroke-linejoin:round;stroke-miterlimit:4;stroke-dasharray:none;stroke-opacity:1"
       d="m 81.315759,158.88939 c -1.444696,-0.16032 -3.150518,-0.73385 -5.235664,-1.76033 l -3.092807,-1.52253 -4.05005,0.38494 c -2.227528,0.21171 -5.768485,0.48071 -7.868795,0.59776 -3.806432,0.21213 -3.819099,0.21588 -3.928572,1.16199 -0.105851,0.91482 -0.179514,0.9446 -2.034983,0.82264 -1.058836,-0.0696 -2.987407,-0.57665 -4.285714,-1.12679 -1.298307,-0.55013 -3.083772,-1.18955 -3.967701,-1.42094 -0.883928,-0.23139 -2.901438,-1.12179 -4.483356,-1.97865 -2.559521,-1.3864 -2.962065,-1.74689 -3.655927,-3.27394 -0.428843,-0.9438 -1.092002,-2.87737 -1.473687,-4.29682 -0.646098,-2.40277 -0.659189,-2.8093 -0.189764,-5.89285 0.361413,-2.37405 0.505943,-6.90269 0.510337,-15.99061 0.0049,-10.10846 0.120798,-13.25776 0.571805,-15.53572 l 0.565676,-2.85714 -1.070419,-4.22973 -1.070419,-4.229736 0.661007,-1.92125 c 0.363553,-1.056686 0.764605,-3.090807 0.891227,-4.520268 0.126621,-1.429461 0.547532,-3.591039 0.935357,-4.803507 l 0.705137,-2.204489 -0.912773,-2.992511 c -0.580954,-1.904654 -0.912772,-3.84185 -0.912772,-5.328886 0,-1.403916 -0.284226,-3.162491 -0.712158,-4.406297 -0.566227,-1.645767 -0.665589,-2.570978 -0.4849,-4.515127 0.205438,-2.210431 0.142451,-2.574281 -0.656017,-3.78956 -0.485801,-0.739395 -1.17362,-1.791831 -1.528486,-2.338745 l -0.64521,-0.99439 11.566957,0.03786 11.566957,0.03786 12.747968,-2.882756 c 7.011382,-1.585516 13.100896,-2.882757 13.532257,-2.882757 0.431357,0 5.7037,0.870488 11.716318,1.934417 6.012612,1.063929 12.619202,2.210023 14.681302,2.546875 4.13752,0.675878 5.66137,0.632236 18.9293,-0.542122 4.22321,-0.3738 9.60714,-0.77367 11.96428,-0.888599 4.70994,-0.229646 16.51519,-2.324076 32.57214,-5.778793 2.79238,-0.600793 3.40993,-0.601451 13.21428,-0.01408 5.65676,0.338891 11.73144,0.610743 13.4993,0.604117 4.61128,-0.01728 19.63013,-2.234304 27.08266,-3.997831 l 6.36838,-1.506978 8.0959,1.362733 8.09591,1.362733 10.53572,-0.170031 10.53571,-0.170031 6.96429,-1.449928 c 6.91288,-1.439226 7.05127,-1.452791 18.75,-1.837825 20.7947,-0.684404 27.96273,-1.107183 31.96429,-1.885291 3.23293,-0.62865 4.98423,-0.720805 12.70123,-0.668353 l 8.95124,0.06084 5.1559,-1.802281 c 2.83575,-0.991255 5.19033,-1.802314 5.23239,-1.802354 0.0421,-4e-5 0.9827,1.88832 2.09031,4.196356 l 2.01384,4.196428 -0.39389,1.985784 c -0.21663,1.092182 -0.39375,2.377896 -0.3936,2.857143 3.1e-4,0.968775 1.73213,4.827527 2.90728,6.477876 0.67759,0.951593 0.72507,1.301141 0.44349,3.265292 -0.45151,3.149456 -0.25983,13.030245 0.38215,19.69962 0.30253,3.142857 0.54765,7.723214 0.54472,10.178571 -0.004,2.917514 0.26417,6.11 0.7725,9.214141 l 0.77782,4.74985 -1.44873,1.50015 -1.44873,1.50014 -0.17652,5.89286 c -0.0971,3.24107 -0.46148,9.04773 -0.80977,12.90367 l -0.63326,7.01082 -5.03061,0.2455 c -2.76684,0.13503 -8.40562,0.47008 -12.53062,0.74455 -6.55808,0.43636 -9.0026,0.42944 -19.46429,-0.0551 l -11.96428,-0.55417 -9.10715,1.80581 c -5.00892,0.99321 -12.48519,2.21127 -16.61391,2.70682 -6.57958,0.78971 -8.09454,1.09813 -12.26543,2.49706 l -4.75864,1.59606 -2.91315,-0.55506 c -2.46446,-0.46956 -3.75957,-0.49488 -8.4086,-0.1644 -3.02249,0.21486 -7.04035,0.63008 -8.92857,0.92271 -1.88822,0.29264 -7.86305,0.85161 -13.27741,1.24217 -9.79252,0.70639 -9.85825,0.71655 -12.5,1.93264 l -2.65572,1.22251 -6.58809,-1.24018 -6.5881,-1.24019 -13.76904,1.11081 c -7.57298,0.61094 -16.38855,1.49312 -19.59017,1.9604 -6.532,0.95335 -5.96601,0.67907 -10.95279,5.30764 l -2.84533,2.64095 -6.5988,-1.7221 c -6.29715,-1.64338 -6.88541,-1.73242 -12.86895,-1.94799 -5.81202,-0.2094 -6.58329,-0.16055 -10.55587,0.66847 -2.86449,0.59778 -6.05164,0.96586 -9.61091,1.10995 -4.73767,0.19179 -5.91588,0.11279 -10.67889,-0.71603 l -5.35369,-0.9316 -3.42825,1.26276 c -2.89805,1.06746 -4.33244,1.35127 -9.274558,1.83507 -4.417461,0.43243 -6.374625,0.78698 -8.008004,1.45068 -2.211521,0.89863 -2.778418,0.94498 -6.502839,0.53166 z"
       id="path883"
       inkscape:connector-curvature="0"
       transform="scale(0.26458333)" />
    <path
       style="opacity:0.38900003;fill:#060509;fill-opacity:1;stroke:none;stroke-width:0.26458332px;stroke-linecap:butt;stroke-linejoin:miter;stroke-opacity:1"
       d="m 9.9218657,16.730656 0.9449403,1.41741 -0.09449,1.322917 0.377976,1.133929 v 1.228422 l 0.472471,1.511905 -0.377976,1.133928 -0.09449,1.322917 -0.377976,1.133929 0.566964,2.173362 -0.283483,1.511906 v 1.511903 2.55134 2.456844 l -0.283481,1.984374 0.47247,1.700895 0.377976,0.661461 1.322917,0.755949 1.228423,0.377976 1.133928,0.472469 1.133928,0.0945 v -0.566965 l 2.362352,-0.09449 1.700893,-0.188989 1.795386,0.850447 1.606399,0.09449 1.228423,-0.472472 3.023808,-0.28348 1.795388,-0.661458 2.740327,0.472469 2.929316,-0.09449 2.267858,-0.472471 3.212798,0.0945 3.590772,0.944938 2.078871,-1.889879 3.212795,-0.472472 7.181549,-0.566962 3.496281,0.661458 1.41741,-0.661458 5.291666,-0.377976 1.795386,-0.283483 2.740329,-0.188989 1.6064,0.283483 2.551337,-0.850448 3.96875,-0.472469 4.819198,-0.944942 6.236607,0.283483 4.441219,-0.283483 2.36235,-0.09449 0.37798,-4.346726 v -2.55134 l 0.85044,-0.755952 -0.37797,-2.267857 -0.0945,-3.118304 -0.18899,-2.078869 -0.18899,-3.307292 c 0,0 0.47247,-1.41741 0.0945,-1.795386 -0.37798,-0.377975 -0.85045,-1.700891 -0.85045,-1.700891 l 0.28349,-1.322917 -0.85045,-1.700893 -0.28348,-0.661458 -2.740331,0.94494 c 0,0 -3.590774,0.09449 -4.063243,0 -0.472469,-0.09449 -2.55134,0.377977 -2.55134,0.377977 0,0 -5.008185,0.283482 -6.047619,0.283482 -1.039434,0 -5.008184,0.188988 -5.008184,0.188988 0,0 -3.401785,0.755952 -4.063243,0.755952 -0.661458,0 -5.386163,0 -5.386163,0 l -3.874252,-0.661472 c 0,0 -2.645833,0.661458 -3.118305,0.755952 -0.472469,0.09449 -5.008184,0.755953 -5.575149,0.755953 -0.566962,0 -6.425594,-0.377977 -6.425594,-0.377977 0,0 -4.535715,1.039435 -5.10268,1.039435 -0.566963,0 -2.362351,0.661458 -4.25223,0.661458 -1.889882,0 -6.331104,0.661459 -7.654021,0.472471 -1.322916,-0.188989 -7.559522,-1.322917 -7.559522,-1.322917 l -7.087054,1.606399 z"
       id="path826-2"
       inkscape:connector-curvature="0" />
    <path
       style="fill:#ffffff;stroke:#000000;stroke-width:0.26458332px;stroke-linecap:butt;stroke-linejoin:miter;stroke-opacity:1"
       d="m 8.6934523,15.69122 0.9449403,1.41741 -0.094494,1.322917 0.3779761,1.133929 v 1.228422 l 0.4724703,1.511905 -0.377976,1.133928 -0.094494,1.322917 -0.3779761,1.133929 0.5669641,2.173362 -0.2834821,1.511906 v 1.511903 2.55134 2.456844 l -0.283482,1.984375 0.4724701,1.700895 0.377976,0.661459 1.322917,0.755951 1.228423,0.377976 1.133928,0.472469 1.133928,0.0945 v -0.566965 l 2.362352,-0.09449 1.700893,-0.188989 1.795386,0.850447 1.606399,0.09449 1.228423,-0.47247 3.023808,-0.283482 1.795388,-0.661458 2.740327,0.472469 2.929316,-0.09449 2.267857,-0.472471 3.212799,0.0945 3.590771,0.94494 2.078871,-1.889881 3.212796,-0.472472 7.181548,-0.566962 3.496281,0.661458 1.41741,-0.661458 5.291666,-0.377976 1.795386,-0.283483 2.740329,-0.188989 1.6064,0.283483 2.551337,-0.850448 3.96875,-0.472469 4.819197,-0.944941 6.236608,0.283483 4.441219,-0.283483 2.362351,-0.09449 0.377976,-4.346726 v -2.55134 l 0.850447,-0.755952 -0.377976,-2.267857 -0.09449,-3.118304 -0.188989,-2.078869 -0.188989,-3.307292 c 0,0 0.472471,-1.41741 0.0945,-1.795386 -0.377975,-0.377977 -0.850447,-1.700893 -0.850447,-1.700893 l 0.283482,-1.322917 -0.850447,-1.700893 -0.28348,-0.661458 -2.740329,0.94494 c 0,0 -3.590774,0.09449 -4.063243,0 -0.47247,-0.09449 -2.55134,0.377977 -2.55134,0.377977 0,0 -5.008185,0.283482 -6.047619,0.283482 -1.039434,0 -5.008184,0.188988 -5.008184,0.188988 0,0 -3.401785,0.755952 -4.063243,0.755952 -0.661458,0 -5.386163,0 -5.386163,0 L 61.704613,12.19494 c 0,0 -2.645833,0.661458 -3.118305,0.755952 -0.472469,0.09449 -5.008184,0.755953 -5.575149,0.755953 -0.566962,0 -6.425594,-0.377977 -6.425594,-0.377977 0,0 -4.535715,1.039435 -5.10268,1.039435 -0.566962,0 -2.362351,0.661458 -4.25223,0.661458 -1.889881,0 -6.331103,0.661459 -7.65402,0.472471 -1.322916,-0.188989 -7.559522,-1.322917 -7.559522,-1.322917 l -7.087054,1.606399 z"
       id="path826"
       inkscape:connector-curvature="0" />
  </g>
</svg>
