<?xml version="1.0" encoding="UTF-8" standalone="no"?>
<!-- Created with Inkscape (http://www.inkscape.org/) -->

<svg
   xmlns:dc="http://purl.org/dc/elements/1.1/"
   xmlns:cc="http://creativecommons.org/ns#"
   xmlns:rdf="http://www.w3.org/1999/02/22-rdf-syntax-ns#"
   xmlns:svg="http://www.w3.org/2000/svg"
   xmlns="http://www.w3.org/2000/svg"
   xmlns:sodipodi="http://sodipodi.sourceforge.net/DTD/sodipodi-0.dtd"
   xmlns:inkscape="http://www.inkscape.org/namespaces/inkscape"
   width="51.940647mm"
   height="62.984165mm"
   viewBox="0 0 51.940647 62.984165"
   version="1.1"
   id="svg8"
   inkscape:version="0.92.4 (5da689c313, 2019-01-14)"
   sodipodi:docname="stopwatch.svg">
  <defs
     id="defs2" />
  <sodipodi:namedview
     id="base"
     pagecolor="#ffffff"
     bordercolor="#666666"
     borderopacity="1.0"
     inkscape:pageopacity="0.0"
     inkscape:pageshadow="2"
     inkscape:zoom="2.8"
     inkscape:cx="67.424083"
     inkscape:cy="116.47165"
     inkscape:document-units="mm"
     inkscape:current-layer="layer1"
     showgrid="false"
     fit-margin-top="0"
     fit-margin-left="0"
     fit-margin-right="0"
     fit-margin-bottom="0"
     inkscape:window-width="1920"
     inkscape:window-height="1017"
     inkscape:window-x="1912"
     inkscape:window-y="-8"
     inkscape:window-maximized="1" />
  <metadata
     id="metadata5">
    <rdf:RDF>
      <cc:Work
         rdf:about="">
        <dc:format>image/svg+xml</dc:format>
        <dc:type
           rdf:resource="http://purl.org/dc/dcmitype/StillImage" />
        <dc:title></dc:title>
      </cc:Work>
    </rdf:RDF>
  </metadata>
  <g
     inkscape:label="Layer 1"
     inkscape:groupmode="layer"
     id="layer1"
     transform="translate(-16.201559,-232.13794)">
    <ellipse
       style="opacity:0.7;fill:none;fill-opacity:1;stroke:#000000;stroke-width:1.98209536;stroke-linecap:round;stroke-linejoin:round;stroke-miterlimit:4;stroke-dasharray:none;stroke-opacity:1"
       id="path826-1"
       cx="42.342003"
       cy="268.81442"
       rx="19.599215"
       ry="19.883263" />
    <path
       id="path847-5"
       style="fill:none;stroke:#000000;stroke-width:2.5;stroke-linecap:round;stroke-linejoin:round;stroke-miterlimit:4;stroke-dasharray:none;stroke-opacity:1;opacity:0.7"
       d="m 51.539848,245.37448 c -1.301248,-0.7627 1.00766,-3.1715 2.344346,-3.87021 0.503234,-0.26305 1.156061,-0.0555 1.700152,0.10699 1.257859,0.37565 2.638537,0.89553 3.422448,1.94853 0.511626,0.68732 0.692588,1.65569 0.577635,2.50478 -0.153652,1.13489 -0.665567,3.63262 -1.63447,3.02204 -2.118791,-1.3352 -3.116459,-1.78164 -6.410111,-3.71213 z m -25.176009,3.62254 c -1.312292,0.74353 -2.238945,-2.46189 -2.173363,-3.96875 0.02469,-0.5673 0.531569,-1.0281 0.94494,-1.41741 0.95565,-0.90003 2.09767,-1.83402 3.401785,-1.98438 0.851201,-0.0981 1.779804,0.23081 2.456847,0.75596 0.90493,0.70192 2.809443,2.39708 1.795386,2.92931 -2.217528,1.16388 -3.103984,1.80329 -6.425595,3.68527 z M 40.06547,238.1302 c -0.946819,-0.0203 -2.081648,0.38514 -2.834815,-0.18898 -0.61001,-0.465 -0.8739,-1.41546 -0.755954,-2.17337 0.145304,-0.9337 0.756036,-2.25541 1.700893,-2.26785 2.681222,-0.0353 5.553307,-0.15611 7.748513,-0.0945 1.065404,0.0299 1.808201,1.58008 1.795386,2.64583 -0.0098,0.81281 -0.694632,1.61243 -1.41741,1.98438 -0.672171,0.34591 -1.511962,-0.009 -2.267863,-1e-5 -1.323198,0.0157 -2.645761,0.12279 -3.96875,0.0945 z m 0.0945,5.00818 -0.0945,-5.00818 3.96875,-0.0945 v 5.19717 z m 26.732235,25.65514 a 24.720324,25.078588 0 0 1 -24.720323,25.07859 24.720324,25.078588 0 0 1 -24.720324,-25.07859 24.720324,25.078588 0 0 1 24.720324,-25.07859 24.720324,25.078588 0 0 1 24.720323,25.07859 z" />
    <path
       style="opacity:0.7;fill:#00adf1;fill-opacity:1;stroke:none;stroke-width:3.37457824;stroke-linecap:round;stroke-linejoin:round;stroke-miterlimit:4;stroke-dasharray:none;stroke-opacity:1"
       d="m 149.37261,234.88931 c -17.32306,-2.20599 -33.2853,-9.05296 -46.07143,-19.76228 C 98.847589,211.39682 92.2543,204.52986 89.111133,200.34799 79.480154,187.53431 73.291227,172.24919 71.349593,156.48137 70.714262,151.3219 70.626197,140.55389 71.177792,135.47449 73.030941,118.40963 80.082539,101.48706 90.955163,88.012335 104.47665,71.254814 124.43725,59.74814 146.05576,56.248533 c 5.43477,-0.879782 17.7971,-1.058801 23.67399,-0.342824 16.42826,2.001445 31.57231,8.374689 44.64286,18.787574 15.92533,12.687201 27.61262,31.693617 31.73087,51.602237 2.45903,11.88753 2.5325,25.71082 0.19834,37.31804 -2.13518,10.61778 -6.90287,22.21743 -12.91778,31.42858 -6.92249,10.60097 -17.22699,20.66937 -27.95424,27.31372 -4.14469,2.56717 -11.45632,6.11481 -16.22773,7.87376 -4.31168,1.58948 -11.87336,3.50186 -16.97232,4.29236 -5.09838,0.79041 -17.91709,0.99642 -22.85714,0.36733 z m 17.70583,-10.9411 c 38.39875,-3.73656 67.86165,-34.43116 70.51188,-73.45965 2.15629,-31.75443 -15.32101,-62.115095 -43.75343,-76.006203 -11.02055,-5.384264 -21.24959,-7.732133 -33.75,-7.746628 -12.68286,-0.01471 -22.51944,2.24778 -33.82009,7.778872 -23.35823,11.432665 -39.184907,33.211149 -43.20745,59.456109 -0.868497,5.66648 -0.867769,17.19896 0.0014,22.85714 3.653805,23.78452 16.842585,43.82029 37.02611,56.24829 13.69962,8.43553 30.96962,12.43116 46.99155,10.87207 z"
       id="path888"
       inkscape:connector-curvature="0"
       transform="matrix(0.26458333,0,0,0.26458333,0,230.33334)" />
    <path
       style="opacity:0.7;fill:#00adf1;fill-opacity:1;stroke:none;stroke-width:3.37457824;stroke-linecap:round;stroke-linejoin:round;stroke-miterlimit:4;stroke-dasharray:none;stroke-opacity:1"
       d="M 98.09677,64.635028 C 97.199151,62.899226 96.53558,60.4126 96.292359,57.873296 l -0.224841,-2.347411 2.559512,-2.295447 c 6.32761,-5.674786 9.98419,-6.961469 14.01996,-4.933365 1.38491,0.695963 6.36847,4.835595 6.36847,5.290017 0,0.146968 -2.77232,1.879334 -6.16071,3.849702 -3.38839,1.970367 -7.96773,4.642328 -10.17631,5.937691 l -4.0156,2.355205 z"
       id="path892"
       inkscape:connector-curvature="0"
       transform="matrix(0.26458333,0,0,0.26458333,0,230.33334)" />
    <path
       style="opacity:0.7;fill:#00adf1;fill-opacity:1;stroke:none;stroke-width:3.37457824;stroke-linecap:round;stroke-linejoin:round;stroke-miterlimit:4;stroke-dasharray:none;stroke-opacity:1"
       d="m 143.00136,24.132473 c -0.93725,-2.057049 0.0297,-6.405042 1.60874,-7.23383 0.37457,-0.196596 6.64448,-0.40022 14.63354,-0.475243 16.00979,-0.150343 15.04195,-0.340469 16.05797,3.154495 0.51912,1.785723 0.51277,1.982589 -0.0976,3.024805 -0.35906,0.613124 -1.07527,1.429615 -1.59157,1.814425 -0.87859,0.654825 -1.14174,0.672028 -4.10715,0.268484 -2.43446,-0.331291 -5.61875,-0.339936 -13.74638,-0.03732 -5.81789,0.216617 -10.97513,0.393848 -11.46053,0.393848 -0.59916,0 -1.01565,-0.292099 -1.29703,-0.909662 z"
       id="path894"
       inkscape:connector-curvature="0"
       transform="matrix(0.26458333,0,0,0.26458333,0,230.33334)" />
    <path
       style="opacity:0.7;fill:#00adf1;fill-opacity:1;stroke:none;stroke-width:3.37457824;stroke-linecap:round;stroke-linejoin:round;stroke-miterlimit:4;stroke-dasharray:none;stroke-opacity:1"
       d="m 214.37261,62.618981 c -2.45536,-1.468097 -6.94471,-4.054722 -9.97635,-5.748056 -3.03163,-1.693334 -5.58193,-3.296657 -5.66733,-3.56294 -0.20924,-0.652382 5.65114,-6.378762 6.8311,-6.674914 0.97312,-0.244238 6.72518,1.451686 9.16972,2.703582 4.15197,2.126304 5.78842,4.496651 5.75891,8.341613 -0.0174,2.273055 -0.95469,7.241321 -1.41164,7.482986 -0.13207,0.06985 -2.24906,-1.074175 -4.70441,-2.542271 z"
       id="path896"
       inkscape:connector-curvature="0"
       transform="matrix(0.26458333,0,0,0.26458333,0,230.33334)" />
    <path
       style="opacity:0.7;fill:#b1eafd;fill-opacity:1;stroke:none;stroke-width:3.37457824;stroke-linecap:round;stroke-linejoin:round;stroke-miterlimit:4;stroke-dasharray:none;stroke-opacity:1"
       d="m 156.39108,41.559992 c -0.12523,-1.325893 -0.22882,-3.476791 -0.23022,-4.779774 -0.003,-2.728806 0.0849,-2.796149 3.65818,-2.804635 l 2.05357,-0.0049 v 5 5 h -2.62693 -2.62693 z"
       id="path904"
       inkscape:connector-curvature="0"
       transform="matrix(0.26458333,0,0,0.26458333,0,230.33334)" />
    <path
       style="opacity:0.7;fill:#b1eafd;fill-opacity:1;stroke:none;stroke-width:3.37457824;stroke-linecap:round;stroke-linejoin:round;stroke-miterlimit:4;stroke-dasharray:none;stroke-opacity:1"
       d="m 152.22975,216.42692 c -16.08803,-1.85147 -30.73789,-9.11317 -42.1547,-20.8954 -5.95981,-6.15056 -9.62333,-11.36007 -13.206654,-18.77976 -9.600226,-19.87841 -9.542898,-43.13385 0.155191,-62.9543 16.121303,-32.947881 54.076453,-48.124205 87.887423,-35.141686 35.54223,13.647282 53.96693,53.561706 41.58204,90.081466 -9.81525,28.94261 -36.88656,48.34992 -67.01708,48.04427 -2.51221,-0.0255 -5.77301,-0.18505 -7.24622,-0.35459 z"
       id="path906"
       inkscape:connector-curvature="0"
       transform="matrix(0.26458333,0,0,0.26458333,0,230.33334)" />
  </g>
</svg>
